<svg xmlns="http://www.w3.org/2000/svg" viewBox="0 0 35.11 70.52"><defs><style>.cls-1{fill:#010101;}</style></defs><g id="Layer_2" data-name="Layer 2"><g id="Layer_1-2" data-name="Layer 1"><path class="cls-1" d="M32.43,44.92c4.32-9.2,3.41-24.13-2.67-33.74A35.71,35.71,0,0,0,18.88.24a1.5,1.5,0,0,0-1.59,0l-.17.09c-.12.07-.24.13-.36.21a36,36,0,0,0-14,44.13,4.49,4.49,0,0,0,.08,8.22V69a1.5,1.5,0,0,0,3,0V64H28.92v5a1.5,1.5,0,0,0,3,0V52.84a4.48,4.48,0,0,0,.51-7.92ZM3.69,24.36,16.15,43l.13.14v1.11H5.79A32.69,32.69,0,0,1,3.69,24.36ZM7.91,13.62l8.26,13a1.92,1.92,0,0,0,.18.22l-.05,11L4.71,20.5A33.17,33.17,0,0,1,7.91,13.62ZM29.43,44.24H19.27V42.85L31.43,24.34C32.7,31.31,32.25,38.92,29.43,44.24Zm1.05-23.93-11.17,17,0-10c0-.05.07-.08.1-.13l8.31-13.52A30.72,30.72,0,0,1,30.48,20.31ZM26,10.94,19.38,21.63l.08-17.32A32.88,32.88,0,0,1,26,10.94ZM16.46,4.36l-.08,17L9.76,10.93A32.87,32.87,0,0,1,16.46,4.36ZM5.86,61H5.79V53.24H28.92V61Z"/></g></g></svg>